<svg width="200" height="200" viewBox="0 0 200 200" fill="none" xmlns="http://www.w3.org/2000/svg">
<path d="M166.875 156.426C166.914 156.367 166.973 156.309 167.012 156.25C179.805 141.035 187.5 121.426 187.5 100C187.5 78.5742 179.805 58.9648 167.031 43.75C166.992 43.6914 166.934 43.6523 166.895 43.5937C166.68 43.3398 166.484 43.1055 166.27 42.8711C166.191 42.7734 166.113 42.6953 166.035 42.5977L165.234 41.6797L165.215 41.6602C164.922 41.3281 164.609 40.9961 164.316 40.6641L164.297 40.6445C163.672 39.9805 163.047 39.3164 162.402 38.6719L162.383 38.6523L161.445 37.7148L161.387 37.6563C161.094 37.3633 160.801 37.0898 160.508 36.8164C160.41 36.7188 160.313 36.6211 160.195 36.5234C160 36.3281 159.805 36.1523 159.609 35.9766C159.551 35.918 159.473 35.8594 159.414 35.7812C143.828 21.3281 122.949 12.5 100 12.5C77.0508 12.5 56.1719 21.3281 40.5664 35.7812C40.5078 35.8398 40.4297 35.8984 40.3711 35.9766C40.1758 36.1523 39.9805 36.3477 39.7852 36.543C39.6875 36.6406 39.5898 36.7383 39.4727 36.8359C39.1797 37.1094 38.8867 37.4023 38.5938 37.6758L38.5352 37.7344L37.5977 38.6719L37.5781 38.6914C36.9336 39.3359 36.3086 40 35.6836 40.6641L35.6641 40.6836C35.3516 41.0156 35.0586 41.3477 34.7656 41.6797L34.7461 41.6992C34.4727 41.9922 34.1992 42.3047 33.9453 42.6172C33.8672 42.7148 33.7891 42.793 33.7109 42.8906C33.4961 43.125 33.3008 43.3789 33.0859 43.6133C33.0469 43.6719 32.9883 43.7109 32.9492 43.7695C20.1953 58.9648 12.5 78.5742 12.5 100C12.5 121.426 20.1953 141.035 32.9688 156.25C33.0078 156.309 33.0664 156.367 33.1055 156.426L33.7109 157.148C33.7891 157.246 33.8672 157.324 33.9453 157.422L34.7461 158.34C34.7461 158.359 34.7656 158.359 34.7656 158.379C35.0586 158.711 35.3516 159.043 35.6641 159.355L35.6836 159.375C36.3086 160.039 36.9336 160.703 37.5586 161.348L37.5781 161.367C37.8906 161.68 38.1836 161.992 38.4961 162.285L38.5547 162.344C39.1992 162.988 39.8633 163.613 40.5273 164.219C56.1719 178.672 77.0508 187.5 100 187.5C122.949 187.5 143.828 178.672 159.434 164.219C160.099 163.609 160.75 162.984 161.387 162.344L161.445 162.285C161.758 161.973 162.07 161.68 162.363 161.367L162.383 161.348C163.027 160.703 163.652 160.039 164.258 159.375L164.277 159.355C164.57 159.023 164.883 158.711 165.176 158.379C165.176 158.359 165.195 158.359 165.195 158.34C165.469 158.047 165.742 157.734 165.996 157.422C166.074 157.324 166.152 157.246 166.23 157.148C166.451 156.913 166.666 156.672 166.875 156.426ZM167.676 128.574C164.98 134.941 161.426 140.84 157.09 146.191C152.207 141.971 146.868 138.309 141.172 135.273C143.437 126.113 144.844 116.055 145.215 105.469H173.242C172.656 113.457 170.781 121.211 167.676 128.574ZM173.242 94.5312H145.215C144.844 83.9453 143.437 73.8867 141.172 64.7266C146.895 61.6797 152.227 58.0078 157.09 53.8086C166.515 65.4097 172.153 79.6238 173.242 94.5312ZM128.574 32.3242C136.328 35.6055 143.379 40.1367 149.59 45.8398C145.982 48.912 142.098 51.6449 137.988 54.0039C134.922 45.2148 130.996 37.5781 126.426 31.4648C127.148 31.7383 127.871 32.0312 128.574 32.3242ZM110.879 169.16C109.082 170.566 107.285 171.641 105.469 172.363V136.133C113.219 136.673 120.84 138.399 128.066 141.25C126.445 146.055 124.57 150.488 122.402 154.492C119.004 160.82 115.02 165.879 110.879 169.16ZM122.402 45.5078C124.551 49.5313 126.445 53.9648 128.066 58.75C120.84 61.6007 113.219 63.3265 105.469 63.8672V27.6563C107.266 28.3789 109.082 29.4336 110.879 30.8594C115.02 34.1211 119.004 39.1797 122.402 45.5078ZM105.469 125.176V105.469H134.277C133.965 114.102 132.891 122.48 131.094 130.43L131.035 130.664C122.839 127.556 114.219 125.705 105.469 125.176ZM105.469 94.5312V74.8242C114.414 74.2773 123.008 72.3828 131.035 69.3359L131.094 69.5703C132.891 77.5195 133.965 85.8789 134.277 94.5312H105.469ZM94.5312 105.469V125.176C85.5859 125.723 76.9922 127.617 68.9648 130.664L68.9062 130.43C67.1094 122.48 66.0352 114.121 65.7227 105.469H94.5312ZM65.7227 94.5312C66.0352 85.8984 67.1094 77.5195 68.9062 69.5703L68.9648 69.3359C76.9922 72.3828 85.5664 74.2773 94.5312 74.8242V94.5312H65.7227ZM94.5312 136.133V172.344C92.7344 171.621 90.918 170.566 89.1211 169.141C84.9805 165.879 80.9766 160.801 77.5781 154.473C75.4297 150.449 73.5352 146.016 71.9141 141.23C79.1797 138.379 86.7383 136.68 94.5312 136.133ZM94.5312 63.8672C86.7814 63.3265 79.1603 61.6007 71.9336 58.75C73.5547 53.9453 75.4297 49.5117 77.5977 45.5078C80.9961 39.1797 84.9805 34.1016 89.1406 30.8398C90.9375 29.4336 92.7344 28.3594 94.5508 27.6367V63.8672H94.5312ZM71.4258 32.3242C72.1484 32.0312 72.8516 31.7383 73.5742 31.4648C69.0039 37.5781 65.0781 45.2148 62.0117 54.0039C57.9102 51.6602 54.0234 48.9258 50.4102 45.8398C56.6211 40.1367 63.6719 35.6055 71.4258 32.3242ZM32.3242 71.4258C35.0195 65.0586 38.5742 59.1602 42.9102 53.8086C47.7734 58.0078 53.1055 61.6797 58.8281 64.7266C56.5625 73.8867 55.1562 83.9453 54.7852 94.5312H26.7578C27.3438 86.543 29.2188 78.7891 32.3242 71.4258ZM26.7578 105.469H54.7852C55.1562 116.055 56.5625 126.113 58.8281 135.273C53.1324 138.309 47.7934 141.971 42.9102 146.191C33.4849 134.59 27.847 120.376 26.7578 105.469ZM71.4258 167.676C63.6719 164.395 56.6211 159.863 50.4102 154.16C54.0234 151.074 57.9102 148.359 62.0117 145.996C65.0781 154.785 69.0039 162.422 73.5742 168.535C72.8516 168.262 72.1289 167.969 71.4258 167.676ZM128.574 167.676C127.852 167.969 127.148 168.262 126.426 168.535C130.996 162.422 134.922 154.785 137.988 145.996C142.09 148.34 145.977 151.074 149.59 154.16C143.413 159.84 136.304 164.412 128.574 167.676Z" fill="white"/>
</svg>
