<svg width="200" height="200" viewBox="0 0 200 200" fill="none" xmlns="http://www.w3.org/2000/svg">
<path d="M178.125 59.043L153.125 73.4375V43.75C153.125 36.8555 147.52 31.25 140.625 31.25H25C18.1055 31.25 12.5 36.8555 12.5 43.75V156.25C12.5 163.145 18.1055 168.75 25 168.75H140.625C147.52 168.75 153.125 163.145 153.125 156.25V126.562L178.125 140.957C182.285 143.359 187.5 140.352 187.5 135.566V64.4531C187.5 59.6484 182.285 56.6406 178.125 59.043ZM139.062 154.688H26.5625V45.3125H139.062V154.688ZM173.438 122.07L153.125 110.391V89.6289L173.438 77.9297V122.07ZM40.625 70.3125H62.5C63.3594 70.3125 64.0625 69.6094 64.0625 68.75V59.375C64.0625 58.5156 63.3594 57.8125 62.5 57.8125H40.625C39.7656 57.8125 39.0625 58.5156 39.0625 59.375V68.75C39.0625 69.6094 39.7656 70.3125 40.625 70.3125Z" fill="white"/>
</svg>
