<svg width="200" height="200" viewBox="0 0 200 200" fill="none" xmlns="http://www.w3.org/2000/svg">
<path d="M99.9219 14.9024C51.6211 14.8828 12.5 53.9844 12.5 102.246C12.5 140.41 36.9727 172.852 71.0547 184.766C75.6445 185.918 74.9414 182.656 74.9414 180.43V165.293C48.4375 168.398 47.3633 150.859 45.5859 147.93C41.9922 141.797 33.4961 140.234 36.0352 137.305C42.0703 134.199 48.2227 138.086 55.3516 148.613C60.5078 156.25 70.5664 154.961 75.6641 153.691C76.7773 149.102 79.1602 145 82.4414 141.816C54.9805 136.895 43.5352 120.137 43.5352 100.215C43.5352 90.5469 46.7187 81.6602 52.9687 74.4922C48.9844 62.6758 53.3398 52.5586 53.9258 51.0547C65.2734 50.0391 77.0703 59.1797 77.9883 59.9024C84.4336 58.1641 91.7969 57.2461 100.039 57.2461C108.32 57.2461 115.703 58.2031 122.207 59.9609C124.414 58.2813 135.352 50.4297 145.898 51.3867C146.465 52.8906 150.723 62.7734 146.973 74.4336C153.301 81.6211 156.523 90.586 156.523 100.273C156.523 120.234 145 137.012 117.461 141.855C119.82 144.175 121.693 146.942 122.97 149.993C124.248 153.045 124.905 156.321 124.902 159.629V181.602C125.059 183.359 124.902 185.098 127.832 185.098C162.422 173.438 187.324 140.762 187.324 102.266C187.324 53.9844 148.184 14.9024 99.9219 14.9024Z" fill="white"/>
</svg>
