<svg width="25" height="25" viewBox="0 0 25 25" fill="none" xmlns="http://www.w3.org/2000/svg">
<path fill-rule="evenodd" clip-rule="evenodd" d="M2.41797 2.36523C2.21906 2.36523 2.02829 2.44425 1.88764 2.5849C1.74699 2.72556 1.66797 2.91632 1.66797 3.11523V10.3152C1.66797 10.8077 1.76497 11.2953 1.95342 11.7503C2.14188 12.2053 2.4181 12.6187 2.76632 12.9669C3.46958 13.6701 4.42341 14.0652 5.41797 14.0652H20.1075L15.087 19.0842C14.9461 19.2251 14.867 19.4161 14.867 19.6152C14.867 19.8144 14.9461 20.0054 15.087 20.1462C15.2278 20.2871 15.4188 20.3662 15.618 20.3662C15.8171 20.3662 16.0081 20.2871 16.149 20.1462L22.449 13.8462C22.5188 13.7766 22.5742 13.6938 22.612 13.6027C22.6498 13.5116 22.6693 13.4139 22.6693 13.3152C22.6693 13.2166 22.6498 13.1189 22.612 13.0278C22.5742 12.9367 22.5188 12.8539 22.449 12.7842L16.449 6.78423C16.3081 6.6434 16.1171 6.56429 15.918 6.56429C15.7188 6.56429 15.5278 6.6434 15.387 6.78423C15.2461 6.92506 15.167 7.11607 15.167 7.31523C15.167 7.5144 15.2461 7.7054 15.387 7.84623L20.1075 12.5652H5.41797C4.82123 12.5652 4.24894 12.3282 3.82698 11.9062C3.40502 11.4843 3.16797 10.912 3.16797 10.3152V3.11523C3.16797 2.91632 3.08895 2.72556 2.9483 2.5849C2.80765 2.44425 2.61688 2.36523 2.41797 2.36523Z" fill="white"/>
</svg>
