<svg width="25" height="18" viewBox="0 0 25 18" fill="none" xmlns="http://www.w3.org/2000/svg">
<path d="M7.33451 0.600098C7.27373 0.600098 7.2079 0.600098 7.14713 0.605162C5.43031 0.645677 3.32353 1.14705 0.700195 2.31185V14.6385C3.77933 13.18 6.10387 12.7596 8.003 12.9622C8.69682 13.0331 9.33493 13.1901 9.92239 13.3977L7.63837 9.40702C7.20283 9.58427 6.73185 9.68556 6.23554 9.68556C4.19916 9.68556 2.53856 8.02445 2.53856 5.98858C2.53856 3.9527 4.19916 2.29159 6.23554 2.29159C8.27141 2.29159 9.93252 3.9527 9.93252 5.98858C9.93252 7.20402 9.33999 8.28273 8.42841 8.96136L11.3303 14.0257C11.6443 14.1878 11.9431 14.365 12.2368 14.5423V2.23589C11.0619 1.33949 9.6945 0.716578 7.88146 0.615291C7.7042 0.605162 7.52189 0.600098 7.33451 0.600098ZM18.0709 0.600098C17.8836 0.600098 17.6962 0.605162 17.5189 0.615291C15.7059 0.716578 14.3436 1.33949 13.1636 2.23589V14.5423C14.374 13.8029 15.7008 13.1395 17.3974 12.9622C19.2965 12.7596 21.6261 13.18 24.7002 14.6385V2.31185C22.0819 1.14705 19.9751 0.645677 18.2583 0.605162C18.1925 0.605162 18.1317 0.600098 18.0709 0.600098ZM6.23554 3.20318C4.69192 3.20318 3.45014 4.44395 3.45014 5.98858C3.45014 7.53321 4.69192 8.77397 6.23554 8.77397C7.78017 8.77397 9.02094 7.53321 9.02094 5.98858C9.02094 4.44395 7.78017 3.20318 6.23554 3.20318ZM6.35202 3.90712H6.49382C5.27331 4.82884 4.73244 6.03922 4.80385 7.46231C3.48407 5.49733 4.86816 3.94764 6.35202 3.90712ZM7.01545 13.8586C5.39486 13.8738 3.37924 14.3549 0.700195 15.6818V17.8341C3.77933 16.3756 6.10387 15.9552 8.003 16.1578C8.94497 16.2591 9.77046 16.5073 10.5251 16.8314C10.287 17.1403 10.0541 17.5049 9.82111 17.9303H12.5204L10.6972 14.755C9.85656 14.3346 8.96017 14.0156 7.90678 13.9042C7.62318 13.8738 7.32438 13.8586 7.01545 13.8586ZM18.2026 13.8586C17.9595 13.8637 17.7266 13.8788 17.4987 13.9042C15.7768 14.0865 14.4803 14.8158 13.1636 15.6463V15.6615C12.8547 15.5653 12.5407 15.545 12.2368 15.6007L13.5687 17.9303H15.7565C15.4527 17.5151 15.1589 17.1504 14.8601 16.8364C15.6198 16.5073 16.4504 16.2591 17.3974 16.1578C19.2965 15.9552 21.6261 16.3756 24.7002 17.8341V15.6818C22.011 14.3498 19.9853 13.8637 18.3596 13.8586H18.2026Z" fill="white"/>
</svg>
