<svg width="1026" height="17" viewBox="0 0 1026 17" fill="none" xmlns="http://www.w3.org/2000/svg">
<path d="M1026 -0.5H1021.99V0.5H1026V-0.5ZM1013.98 -0.5H1005.96V0.5H1013.98V-0.5ZM997.945 -0.5H989.93V0.5H997.945V-0.5ZM981.914 -0.5H973.898V0.5H981.914V-0.5ZM965.883 -0.5H957.867V0.5H965.883V-0.5ZM949.852 -0.5H941.836V0.5H949.852V-0.5ZM933.82 -0.5H925.805V0.5H933.82V-0.5ZM917.789 -0.5H909.773V0.5H917.789V-0.5ZM901.758 -0.5H893.742V0.5H901.758V-0.5ZM885.727 -0.5H877.711V0.5H885.727V-0.5ZM869.695 -0.5H861.68V0.5H869.695V-0.5ZM853.664 -0.5H845.648V0.5H853.664V-0.5ZM837.633 -0.5H829.617V0.5H837.633V-0.5ZM821.602 -0.5H813.586V0.5H821.602V-0.5ZM805.57 -0.5H797.555V0.5H805.57V-0.5ZM789.539 -0.5H781.523V0.5H789.539V-0.5ZM773.508 -0.5H765.492V0.5H773.508V-0.5ZM757.477 -0.5H749.461V0.5H757.477V-0.5ZM741.445 -0.5H733.43V0.5H741.445V-0.5ZM725.414 -0.5H717.398V0.5H725.414V-0.5ZM709.383 -0.5H701.367V0.5H709.383V-0.5ZM693.352 -0.5H685.336V0.5H693.352V-0.5ZM677.32 -0.5H669.305V0.5H677.32V-0.5ZM661.289 -0.5H653.273V0.5H661.289V-0.5ZM645.258 -0.5H637.242V0.5H645.258V-0.5ZM629.227 -0.5H621.211V0.5H629.227V-0.5ZM613.195 -0.5H605.18V0.5H613.195V-0.5ZM597.164 -0.5H589.148V0.5H597.164V-0.5ZM581.133 -0.5H573.117V0.5H581.133V-0.5ZM565.102 -0.5H557.086V0.5H565.102V-0.5ZM549.07 -0.5H541.055V0.5H549.07V-0.5ZM533.039 -0.5H525.023V0.5H533.039V-0.5ZM517.008 -0.5H508.992V0.5H517.008V-0.5ZM500.977 -0.5H492.961V0.5H500.977V-0.5ZM484.945 -0.5H476.93V0.5H484.945V-0.5ZM468.914 -0.5H460.898V0.5H468.914V-0.5ZM452.883 -0.5H444.867V0.5H452.883V-0.5ZM436.852 -0.5H428.836V0.5H436.852V-0.5ZM420.82 -0.5H412.805V0.5H420.82V-0.5ZM404.789 -0.5H396.773V0.5H404.789V-0.5ZM388.758 -0.5H380.742V0.5H388.758V-0.5ZM372.727 -0.5H364.711V0.5H372.727V-0.5ZM356.695 -0.5H348.68V0.5H356.695V-0.5ZM340.664 -0.5H332.648V0.5H340.664V-0.5ZM324.633 -0.5H316.617V0.5H324.633V-0.5ZM308.602 -0.5H300.586V0.5H308.602V-0.5ZM292.57 -0.5H284.555V0.5H292.57V-0.5ZM276.539 -0.5H268.523V0.5H276.539V-0.5ZM260.508 -0.5H252.492V0.5H260.508V-0.5ZM244.477 -0.5H236.461V0.5H244.477V-0.5ZM228.445 -0.5H220.43V0.5H228.445V-0.5ZM212.414 -0.5H204.398V0.5H212.414V-0.5ZM196.383 -0.5H188.367V0.5H196.383V-0.5ZM180.352 -0.5H172.336V0.5H180.352V-0.5ZM164.32 -0.5H156.305V0.5H164.32V-0.5ZM148.289 -0.5H140.273V0.5H148.289V-0.5ZM132.258 -0.5H124.242V0.5H132.258V-0.5ZM116.227 -0.5H108.211V0.5H116.227V-0.5ZM100.195 -0.5H92.1797V0.5H100.195V-0.5ZM84.1641 -0.5H76.1484V0.5H84.1641V-0.5ZM68.1328 -0.5H60.1172V0.5H68.1328V-0.5ZM52.1016 -0.5H44.0859V0.5H52.1016V-0.5ZM36.0703 -0.5H28.0547V0.5H36.0703V-0.5ZM20.0391 -0.5H12.0234V0.5H20.0391V-0.5ZM4.00781 -0.5H0V0.5H4.00781V-0.5ZM1026 -1H1021.99V1H1026V-1ZM1013.98 -1H1005.96V1H1013.98V-1ZM997.945 -1H989.93V1H997.945V-1ZM981.914 -1H973.898V1H981.914V-1ZM965.883 -1H957.867V1H965.883V-1ZM949.852 -1H941.836V1H949.852V-1ZM933.82 -1H925.805V1H933.82V-1ZM917.789 -1H909.773V1H917.789V-1ZM901.758 -1H893.742V1H901.758V-1ZM885.727 -1H877.711V1H885.727V-1ZM869.695 -1H861.68V1H869.695V-1ZM853.664 -1H845.648V1H853.664V-1ZM837.633 -1H829.617V1H837.633V-1ZM821.602 -1H813.586V1H821.602V-1ZM805.57 -1H797.555V1H805.57V-1ZM789.539 -1H781.523V1H789.539V-1ZM773.508 -1H765.492V1H773.508V-1ZM757.477 -1H749.461V1H757.477V-1ZM741.445 -1H733.43V1H741.445V-1ZM725.414 -1H717.398V1H725.414V-1ZM709.383 -1H701.367V1H709.383V-1ZM693.352 -1H685.336V1H693.352V-1ZM677.32 -1H669.305V1H677.32V-1ZM661.289 -1H653.273V1H661.289V-1ZM645.258 -1H637.242V1H645.258V-1ZM629.227 -1H621.211V1H629.227V-1ZM613.195 -1H605.18V1H613.195V-1ZM597.164 -1H589.148V1H597.164V-1ZM581.133 -1H573.117V1H581.133V-1ZM565.102 -1H557.086V1H565.102V-1ZM549.07 -1H541.055V1H549.07V-1ZM533.039 -1H525.023V1H533.039V-1ZM517.008 -1H508.992V1H517.008V-1ZM500.977 -1H492.961V1H500.977V-1ZM484.945 -1H476.93V1H484.945V-1ZM468.914 -1H460.898V1H468.914V-1ZM452.883 -1H444.867V1H452.883V-1ZM436.852 -1H428.836V1H436.852V-1ZM420.82 -1H412.805V1H420.82V-1ZM404.789 -1H396.773V1H404.789V-1ZM388.758 -1H380.742V1H388.758V-1ZM372.727 -1H364.711V1H372.727V-1ZM356.695 -1H348.68V1H356.695V-1ZM340.664 -1H332.648V1H340.664V-1ZM324.633 -1H316.617V1H324.633V-1ZM308.602 -1H300.586V1H308.602V-1ZM292.57 -1H284.555V1H292.57V-1ZM276.539 -1H268.523V1H276.539V-1ZM260.508 -1H252.492V1H260.508V-1ZM244.477 -1H236.461V1H244.477V-1ZM228.445 -1H220.43V1H228.445V-1ZM212.414 -1H204.398V1H212.414V-1ZM196.383 -1H188.367V1H196.383V-1ZM180.352 -1H172.336V1H180.352V-1ZM164.32 -1H156.305V1H164.32V-1ZM148.289 -1H140.273V1H148.289V-1ZM132.258 -1H124.242V1H132.258V-1ZM116.227 -1H108.211V1H116.227V-1ZM100.195 -1H92.1797V1H100.195V-1ZM84.1641 -1H76.1484V1H84.1641V-1ZM68.1328 -1H60.1172V1H68.1328V-1ZM52.1016 -1H44.0859V1H52.1016V-1ZM36.0703 -1H28.0547V1H36.0703V-1ZM20.0391 -1H12.0234V1H20.0391V-1ZM4.00781 -1H0V1H4.00781V-1Z" fill="white" mask="url(#path-1-inside-1_563_5856)"/>
</svg>
